<svg width="112" height="38" viewBox="0 0 112 38" fill="none" xmlns="http://www.w3.org/2000/svg">
<g clip-path="url(#clip0)">
<path d="M94.6169 8.05082C95.0359 8.05082 95.4549 8.13966 95.8432 8.30748L105.081 12.345C106.175 12.8189 106.87 13.8653 106.87 15.0202V28.6235C106.87 29.4823 106.144 30.1141 105.327 30.1141C105.112 30.1141 104.897 30.0746 104.693 29.9759L95.833 26.1062C95.4447 25.9384 95.0257 25.8495 94.6067 25.8495C94.1877 25.8495 93.7789 25.9285 93.3906 26.0963L84.4284 29.9759C84.224 30.0647 84.0094 30.1042 83.7948 30.1042C82.9874 30.1042 82.2517 29.4724 82.2517 28.6136V15.0301C82.2517 13.8751 82.9568 12.8189 84.0502 12.345L93.3906 8.29761C93.7891 8.13966 94.1979 8.05082 94.6169 8.05082ZM94.6169 3.09521C93.4621 3.09521 92.3482 3.32226 91.3059 3.77636L81.9655 7.82377C79.0326 9.09722 77.1318 11.9205 77.1318 15.0301V28.6333C77.1318 32.1872 80.1261 35.0796 83.805 35.0796C84.7451 35.0796 85.6649 34.892 86.5335 34.5169L94.6067 31.0223L102.578 34.507C103.446 34.892 104.376 35.0796 105.327 35.0796C109.006 35.0796 112 32.1872 112 28.6333V15.0202C112 11.9205 110.109 9.09722 107.197 7.82377L97.9586 3.78623C96.8958 3.33214 95.7819 3.09521 94.6169 3.09521Z" fill="#2BAE66"/>
<path d="M1.74635 32.7988C1.61602 32.786 1.51175 32.7224 1.43355 32.6332C1.34232 32.5313 1.30322 32.4294 1.30322 32.2893V27.5763C1.30322 27.449 1.34232 27.3343 1.42052 27.2324C1.49872 27.1305 1.60298 27.0796 1.73332 27.0668C2.02005 27.0286 2.34587 27.0159 2.69777 27.0159C4.09232 27.0159 4.79611 27.4744 4.79611 28.3915C4.79611 28.71 4.69184 28.9775 4.47028 29.2068C4.26175 29.436 3.96198 29.5889 3.59706 29.6653C3.59706 29.6653 3.58402 29.6653 3.58402 29.678C3.58402 29.6908 3.58402 29.6908 3.59706 29.6908C4.05322 29.7672 4.40511 29.9328 4.66577 30.1876C4.92644 30.455 5.04374 30.7608 5.04374 31.1301C5.04374 32.2638 4.28781 32.837 2.76293 32.837C2.39801 32.8497 2.05914 32.837 1.74635 32.7988ZM1.92881 27.6655V29.4106C1.92881 29.4488 1.95488 29.4742 1.99398 29.4742H2.45014C3.61009 29.4742 4.18355 29.1431 4.18355 28.4807C4.18355 28.1623 4.06625 27.9202 3.83165 27.7674C3.59706 27.6145 3.21909 27.5381 2.69777 27.5381C2.46317 27.5381 2.24161 27.5636 1.99398 27.6018C1.95488 27.6018 1.92881 27.6273 1.92881 27.6655ZM1.92881 30.0474V32.2129C1.92881 32.2638 1.94185 32.2893 1.98095 32.2893C2.24161 32.3275 2.50227 32.353 2.76293 32.353C3.87075 32.353 4.41814 31.9326 4.41814 31.0919C4.41814 30.3404 3.76649 29.971 2.45014 29.971H1.99398C1.95488 29.971 1.92881 29.9965 1.92881 30.0474Z" fill="#9FA6AB"/>
<path d="M8.57545 32.7734C8.45815 32.7734 8.35389 32.7352 8.26266 32.6461C8.17142 32.5569 8.13232 32.455 8.13232 32.3404V27.551C8.13232 27.4364 8.17142 27.3345 8.26266 27.2453C8.35389 27.1561 8.45815 27.1179 8.57545 27.1179H11.2472C11.3254 27.1179 11.3906 27.1434 11.4427 27.1943C11.4949 27.2453 11.5209 27.309 11.5209 27.3727C11.5209 27.4364 11.4949 27.5 11.4427 27.551C11.3906 27.602 11.3254 27.6274 11.2472 27.6274H8.83611C8.78398 27.6274 8.77095 27.6529 8.77095 27.6911V29.4107C8.77095 29.4489 8.79701 29.4744 8.83611 29.4744H11.1169C11.1951 29.4744 11.2472 29.4999 11.2994 29.5508C11.3515 29.6018 11.3645 29.6527 11.3645 29.7291C11.3645 29.7928 11.3385 29.8565 11.2994 29.9075C11.2472 29.9584 11.1951 29.9839 11.1169 29.9839H8.83611C8.78398 29.9839 8.77095 30.0094 8.77095 30.0476V32.2002C8.77095 32.2385 8.79701 32.2639 8.83611 32.2639H11.2472C11.3254 32.2639 11.3906 32.2894 11.4427 32.3404C11.4949 32.3913 11.5209 32.455 11.5209 32.5187C11.5209 32.5824 11.4949 32.6461 11.4427 32.697C11.3906 32.748 11.3254 32.7734 11.2472 32.7734H8.57545Z" fill="#9FA6AB"/>
<path d="M15.405 32.6844C15.3398 32.748 15.2746 32.7735 15.1834 32.7735C15.0922 32.7735 15.014 32.748 14.9618 32.6844C14.8967 32.6207 14.8706 32.5442 14.8706 32.4678V27.4109C14.8706 27.3345 14.8967 27.2581 14.9618 27.1944C15.027 27.1307 15.0922 27.1052 15.1834 27.1052C15.2746 27.1052 15.3528 27.1307 15.405 27.1944C15.4701 27.2581 15.4962 27.3345 15.4962 27.4109V29.4108C15.4962 29.449 15.5223 29.4744 15.5614 29.4744H18.181C18.2201 29.4744 18.2462 29.449 18.2462 29.4108V27.4109C18.2462 27.3345 18.2723 27.2581 18.3374 27.1944C18.4026 27.1307 18.4677 27.1052 18.559 27.1052C18.6502 27.1052 18.7284 27.1307 18.7805 27.1944C18.8457 27.2581 18.8718 27.3345 18.8718 27.4109V32.4678C18.8718 32.557 18.8457 32.6207 18.7805 32.6844C18.7154 32.748 18.6502 32.7735 18.559 32.7735C18.4677 32.7735 18.3895 32.748 18.3374 32.6844C18.2723 32.6207 18.2462 32.5442 18.2462 32.4678V30.0476C18.2462 29.9967 18.2201 29.984 18.181 29.984H15.5614C15.5223 29.984 15.4962 30.0094 15.4962 30.0476V32.4678C15.4962 32.5442 15.4571 32.6207 15.405 32.6844Z" fill="#9FA6AB"/>
<path d="M22.8469 32.6844C22.7817 32.748 22.7165 32.7735 22.6253 32.7735C22.5341 32.7735 22.4559 32.748 22.4037 32.6844C22.3386 32.6207 22.3125 32.5442 22.3125 32.4678V27.4109C22.3125 27.3345 22.3386 27.2581 22.4037 27.1944C22.4689 27.1307 22.5341 27.1052 22.6253 27.1052C22.7165 27.1052 22.7947 27.1307 22.8469 27.1944C22.912 27.2581 22.9381 27.3345 22.9381 27.4109V29.6146C22.9381 29.6146 22.9381 29.6273 22.9511 29.6273H22.9642L25.1146 27.3727C25.2841 27.1944 25.5056 27.1052 25.7532 27.1052C25.8314 27.1052 25.8836 27.1434 25.9096 27.2071C25.9357 27.2708 25.9227 27.3345 25.8705 27.3855L23.5637 29.7802C23.5376 29.8056 23.5246 29.8438 23.5506 29.8693L25.9618 32.4933C26.0139 32.5442 26.0139 32.6079 25.9878 32.6716C25.9618 32.7353 25.9096 32.7735 25.8314 32.7735C25.5708 32.7735 25.3623 32.6844 25.1928 32.4933L22.9511 30.0094L22.9381 29.9967C22.9381 29.9967 22.9251 29.9967 22.9251 30.0094V32.4551C22.9381 32.5442 22.912 32.6207 22.8469 32.6844Z" fill="#9FA6AB"/>
<path d="M29.572 32.6844C29.5068 32.748 29.4416 32.7735 29.3504 32.7735C29.2592 32.7735 29.181 32.748 29.1288 32.6844C29.0637 32.6207 29.0376 32.5442 29.0376 32.4678V27.4109C29.0376 27.3345 29.0637 27.2581 29.1288 27.1944C29.194 27.1307 29.2592 27.1052 29.3504 27.1052C29.4416 27.1052 29.5198 27.1307 29.572 27.1944C29.6371 27.2581 29.6632 27.3345 29.6632 27.4109V29.4108C29.6632 29.449 29.6893 29.4744 29.7284 29.4744H32.348C32.3871 29.4744 32.4132 29.449 32.4132 29.4108V27.4109C32.4132 27.3345 32.4392 27.2581 32.5044 27.1944C32.5696 27.1307 32.6347 27.1052 32.726 27.1052C32.8172 27.1052 32.8954 27.1307 32.9475 27.1944C33.0127 27.2581 33.0388 27.3345 33.0388 27.4109V32.4678C33.0388 32.557 33.0127 32.6207 32.9475 32.6844C32.8824 32.748 32.8172 32.7735 32.726 32.7735C32.6347 32.7735 32.5565 32.748 32.5044 32.6844C32.4392 32.6207 32.4132 32.5442 32.4132 32.4678V30.0476C32.4132 29.9967 32.3871 29.984 32.348 29.984H29.7284C29.6893 29.984 29.6632 30.0094 29.6632 30.0476V32.4678C29.6632 32.5442 29.6371 32.6207 29.572 32.6844Z" fill="#9FA6AB"/>
<path d="M36.31 32.7733C36.2318 32.7733 36.1666 32.7351 36.1145 32.6714C36.0623 32.6077 36.0623 32.544 36.0884 32.4676L37.9 27.4235C37.9391 27.3216 38.0043 27.2451 38.0825 27.1815C38.1737 27.1178 38.2649 27.0923 38.3692 27.0923C38.4735 27.0923 38.5777 27.1178 38.6559 27.1815C38.7472 27.2451 38.7993 27.3216 38.8384 27.4235L40.65 32.4548C40.6761 32.5313 40.663 32.6077 40.6239 32.6714C40.5718 32.7351 40.5066 32.7733 40.4284 32.7733C40.3242 32.7733 40.2329 32.7478 40.1417 32.6841C40.0635 32.6204 39.9983 32.544 39.9723 32.4548L39.5552 31.1811C39.5422 31.1429 39.5031 31.1174 39.464 31.1174H37.2614C37.2223 31.1174 37.1962 31.1429 37.1702 31.1811L36.727 32.4676C36.701 32.5568 36.6358 32.6332 36.5576 32.6841C36.4924 32.7478 36.4012 32.7733 36.31 32.7733ZM38.3431 27.6655L37.3787 30.5569C37.3787 30.5697 37.3787 30.5824 37.3917 30.5951C37.4048 30.6079 37.4178 30.6206 37.4308 30.6206H39.2946C39.3076 30.6206 39.3206 30.6206 39.3337 30.5951C39.3467 30.5824 39.3467 30.5697 39.3467 30.5569L38.3822 27.6655C38.3822 27.6655 38.3822 27.6527 38.3692 27.6527C38.3562 27.6655 38.3431 27.6655 38.3431 27.6655Z" fill="#9FA6AB"/>
<path d="M43.6088 32.7733C43.5306 32.7733 43.4654 32.7351 43.4133 32.6714C43.3612 32.6077 43.3612 32.544 43.3872 32.4676L45.1988 27.4235C45.2379 27.3216 45.3031 27.2451 45.3813 27.1815C45.4725 27.1178 45.5638 27.0923 45.668 27.0923C45.7723 27.0923 45.8766 27.1178 45.9548 27.1815C46.046 27.2451 46.0981 27.3216 46.1372 27.4235L47.9488 32.4548C47.9749 32.5313 47.9619 32.6077 47.9228 32.6714C47.8706 32.7351 47.8055 32.7733 47.7273 32.7733C47.623 32.7733 47.5318 32.7478 47.4405 32.6841C47.3623 32.6204 47.2972 32.544 47.2711 32.4548L46.854 31.1811C46.841 31.1429 46.8019 31.1174 46.7628 31.1174H44.5733C44.5342 31.1174 44.5081 31.1429 44.482 31.1811L44.0389 32.4676C44.0128 32.5568 43.9477 32.6332 43.8695 32.6841C43.8043 32.7478 43.7131 32.7733 43.6088 32.7733ZM45.655 27.6655L44.6905 30.5569C44.6905 30.5697 44.6906 30.5824 44.7036 30.5951C44.7166 30.6079 44.7296 30.6206 44.7427 30.6206H46.6064C46.6195 30.6206 46.6325 30.6206 46.6455 30.5951C46.6586 30.5824 46.6586 30.5697 46.6586 30.5569L45.6941 27.6655C45.6941 27.6655 45.6941 27.6527 45.6811 27.6527C45.668 27.6655 45.655 27.6655 45.655 27.6655Z" fill="#9FA6AB"/>
<path d="M51.4548 32.6971C51.3896 32.748 51.3244 32.7862 51.2332 32.7862C51.142 32.7862 51.0768 32.7608 51.0116 32.6971C50.9465 32.6461 50.9204 32.5697 50.9204 32.4805V27.4237C50.9204 27.3345 50.9465 27.2581 51.0116 27.1944C51.0768 27.1307 51.155 27.1052 51.2462 27.1052C51.4678 27.1052 51.6242 27.1944 51.7415 27.3855L54.3872 31.7672C54.3872 31.7672 54.3872 31.78 54.4003 31.78C54.4003 31.78 54.4133 31.78 54.4133 31.7672V27.4109C54.4133 27.3218 54.4394 27.2453 54.5045 27.1944C54.5697 27.1434 54.6349 27.1052 54.7261 27.1052C54.8043 27.1052 54.8825 27.1307 54.9477 27.1944C55.0128 27.2453 55.0389 27.3218 55.0389 27.4109V32.4551C55.0389 32.5442 55.0128 32.6207 54.9477 32.6843C54.8825 32.748 54.8043 32.7735 54.7131 32.7735C54.4915 32.7735 54.3351 32.6843 54.2178 32.4933L51.5721 28.1242C51.5721 28.1242 51.5721 28.1115 51.559 28.1115C51.559 28.1115 51.546 28.1115 51.546 28.1242V32.4805C51.546 32.557 51.5199 32.6334 51.4548 32.6971Z" fill="#9FA6AB"/>
<path d="M59.1705 32.6719C59.1053 32.7483 59.0141 32.7865 58.9098 32.7865C58.8056 32.7865 58.7143 32.7483 58.6492 32.6719C58.584 32.5954 58.5449 32.519 58.5449 32.4171V32.0732C58.5449 31.9713 58.584 31.8821 58.6492 31.8185C58.7143 31.7548 58.8056 31.7166 58.9098 31.7166C59.0141 31.7166 59.1053 31.7548 59.1705 31.8185C59.2357 31.8821 59.2748 31.9713 59.2748 32.0732V32.4044C59.2748 32.5063 59.2487 32.5954 59.1705 32.6719Z" fill="#9FA6AB"/>
<path d="M63.5626 27.6916C63.4975 27.7553 63.4323 27.7808 63.3411 27.7808C63.2499 27.7808 63.1717 27.7553 63.1195 27.6916C63.0544 27.6279 63.0283 27.5642 63.0283 27.4751V27.2713C63.0283 27.1949 63.0544 27.1184 63.1195 27.0547C63.1847 26.9911 63.2499 26.9656 63.3411 26.9656C63.4323 26.9656 63.5105 26.9911 63.5626 27.0547C63.6278 27.1184 63.6539 27.1949 63.6539 27.2713V27.4751C63.6539 27.5515 63.6278 27.6279 63.5626 27.6916ZM63.5626 32.6848C63.4975 32.7485 63.4323 32.7739 63.3411 32.7739C63.2499 32.7739 63.1717 32.7485 63.1195 32.6848C63.0544 32.6211 63.0283 32.5447 63.0283 32.4682V29.0546C63.0283 28.9781 63.0544 28.9017 63.1195 28.838C63.1847 28.7743 63.2499 28.7488 63.3411 28.7488C63.4323 28.7488 63.5105 28.7743 63.5626 28.838C63.6278 28.9017 63.6539 28.9781 63.6539 29.0546V32.4682C63.6539 32.5447 63.6278 32.6211 63.5626 32.6848Z" fill="#9FA6AB"/>
<path d="M67.7721 32.6845C67.707 32.7482 67.6418 32.7737 67.5506 32.7737C67.4593 32.7737 67.3811 32.7482 67.329 32.6845C67.2639 32.6208 67.2378 32.5444 67.2378 32.468V29.0288C67.2378 28.9524 67.2639 28.876 67.329 28.825C67.3942 28.7741 67.4594 28.7358 67.5376 28.7358C67.6288 28.7358 67.6939 28.7613 67.7461 28.825C67.7982 28.876 67.8373 28.9524 67.8373 29.0288V29.6275C67.8373 29.6275 67.8373 29.6402 67.8503 29.6402C67.8634 29.6402 67.8634 29.6402 67.8634 29.6275C68.0198 29.3727 68.2413 29.1562 68.5411 29.0033C68.8278 28.8505 69.1536 28.7613 69.5186 28.7486C69.5968 28.7486 69.6619 28.7613 69.7141 28.8123C69.7662 28.8632 69.7923 28.9269 69.7923 29.0033C69.7923 29.067 69.7662 29.1307 69.7141 29.1817C69.6619 29.2326 69.5968 29.2581 69.5316 29.2708C69.0103 29.2963 68.6063 29.4364 68.3195 29.7166C68.0328 29.9969 67.8894 30.379 67.8894 30.8758V32.4807C67.8634 32.5444 67.8373 32.6208 67.7721 32.6845Z" fill="#9FA6AB"/>
<path d="M6.8813 14.3681L6.43817 13.9351C6.13841 13.6421 5.65619 13.6421 5.35642 13.9351L4.9133 14.3681C4.61354 14.6611 4.61354 15.1324 4.9133 15.4254L5.35642 15.8585C5.65619 16.1514 6.13841 16.1514 6.43817 15.8585L6.8813 15.4254C7.18106 15.1197 7.18106 14.6484 6.8813 14.3681Z" fill="white"/>
<path d="M10.0225 12.2413L9.07106 12.6871C8.70614 12.8527 8.54974 13.273 8.6931 13.6424C9.22746 14.9289 9.50116 16.0117 9.50116 16.8778C9.50116 17.7695 9.21443 18.47 8.64097 18.9668C8.06751 19.4636 7.18126 19.7183 5.98221 19.7183C4.73103 19.7183 3.83174 19.4508 3.27132 18.9286C2.71089 18.4063 2.42416 17.6548 2.42416 16.674C2.42416 15.9862 2.59359 15.0054 2.93246 13.7443C3.03672 13.3622 2.81516 12.9673 2.42416 12.84L1.59004 12.5725C1.17298 12.4451 0.742889 12.6744 0.625591 13.082C0.20853 14.4704 0 15.7442 0 16.916C0 18.5974 0.495259 19.8966 1.49881 20.7883C2.50236 21.6927 4.00117 22.1385 5.98221 22.1385C6.82937 22.1385 7.61135 22.0238 8.32818 21.7946C9.045 21.5653 9.68362 21.2341 10.218 20.801C10.7654 20.3679 11.1824 19.8075 11.4952 19.1197C11.808 18.4318 11.9514 17.6548 11.9514 16.7887C11.9514 15.8843 11.8602 15.0945 11.6647 14.4067C11.5213 13.8972 11.3128 13.3113 11.0391 12.6362C10.8957 12.2286 10.4135 12.0502 10.0225 12.2413Z" fill="white"/>
<path d="M14.2709 18.075H15.2093C15.6264 18.075 15.9782 17.7438 15.9782 17.3235V7.43902C15.9782 7.03142 15.6394 6.6875 15.2093 6.6875H14.2709C13.8538 6.6875 13.502 7.01868 13.502 7.43902V17.3235C13.502 17.7311 13.8408 18.075 14.2709 18.075Z" fill="white"/>
<path d="M38.3564 6.56028L37.9133 6.1272C37.6135 5.83423 37.1313 5.83423 36.8315 6.1272L36.3884 6.56028C36.0886 6.85324 36.0886 7.32454 36.3884 7.61751L36.8315 8.05059C37.1313 8.34356 37.6135 8.34356 37.9133 8.05059L38.3564 7.61751C38.6562 7.3118 38.6562 6.84051 38.3564 6.56028Z" fill="white"/>
<path d="M69.2321 11.2858L68.3849 11.5151C67.9939 11.617 67.7593 12.0118 67.8375 12.394C68.007 13.1964 68.0982 13.7824 68.0982 14.1645C68.0982 14.6867 67.9679 15.0561 67.7072 15.2982C67.4465 15.5402 67.0295 15.6675 66.456 15.6675H66.1563H59.1705H59.1575H58.9489C58.1669 15.6675 57.4632 15.9987 56.8376 16.6738C56.212 17.3489 55.6907 18.3297 55.2736 19.6417L55.026 19.7563C54.244 19.2723 53.7487 18.5972 53.5662 17.7183C54.8044 17.3362 55.7558 16.7757 56.4466 16.0115C57.1373 15.2472 57.4762 14.3683 57.4762 13.362C57.4762 12.4959 57.2286 11.808 56.7463 11.2858C56.2641 10.7635 55.6125 10.5088 54.8174 10.5088C53.7748 10.5088 52.9276 10.9673 52.289 11.8972C51.6504 12.827 51.2985 14.0753 51.2333 15.6675H50.2167H43.231H43.2179H43.0224C42.5142 15.6675 42.1362 15.6166 41.8886 15.5274C41.6409 15.4383 41.4324 15.2599 41.2369 15.0052L41.9668 14.5339C42.1753 14.3938 42.3056 14.1645 42.3056 13.9097V12.9799C42.3056 12.636 42.071 12.343 41.7452 12.2666C41.4585 12.1902 41.1587 12.1137 40.8459 12.0118C40.3376 11.859 39.9466 11.7189 39.6599 11.6042C39.3732 11.4896 38.9952 11.324 38.4999 11.1202C38.0438 10.9291 37.7049 10.789 37.4573 10.6871C37.2227 10.5979 36.936 10.5088 36.5971 10.4196C36.2713 10.3304 35.9715 10.2922 35.7109 10.2922C34.8246 10.2922 34.1339 10.5725 33.6516 11.1329C33.3258 11.5151 32.9478 12.6869 32.7263 13.413C32.635 13.7314 32.8436 14.0626 33.1824 14.1263L33.9775 14.2664C34.2512 14.3173 34.5248 14.1645 34.6291 13.9097C34.8246 13.3748 35.2286 12.5723 35.8282 12.6869C35.9715 12.7124 36.1279 12.7124 36.3104 12.7506C36.4928 12.7888 36.6362 12.8398 36.7535 12.878C36.8708 12.9162 37.0533 12.9926 37.3009 13.0945C38.0829 13.4257 38.7736 13.6423 39.3862 13.7696L37.6137 14.8141C37.0533 15.1453 36.4928 15.3746 35.9715 15.4892C35.4372 15.6166 34.8116 15.6675 34.0948 15.6675H31.8791H24.8934H24.2808C24.0592 12.5978 22.9254 11.0692 20.8792 11.0692C20.3578 11.0692 19.8886 11.1966 19.4585 11.4386C19.0415 11.6806 18.7026 12.0118 18.455 12.4194C18.2074 12.827 18.0119 13.2601 17.8815 13.7314C17.7512 14.2027 17.686 14.674 17.686 15.1708C17.686 16.1134 17.9337 16.8394 18.442 17.3362C18.9502 17.833 19.654 18.0877 20.5794 18.0877H21.7133C21.4526 18.559 20.9574 19.0048 20.2275 19.4252C19.6801 19.7309 19.0415 20.0238 18.2856 20.2786C17.8555 20.4314 17.6469 20.9027 17.8424 21.2976L18.2334 22.1128C18.4029 22.4567 18.8199 22.6223 19.1848 22.4949C20.5403 22.0237 21.6351 21.4632 22.4431 20.8008C23.3815 20.0493 23.955 19.1322 24.1765 18.075H24.8934H31.8791H33.6125C34.603 18.075 35.5023 17.9603 36.3104 17.7438C37.1184 17.5272 37.9135 17.1706 38.6824 16.6738L39.6469 16.0369C39.9206 16.7502 40.3376 17.2725 40.898 17.5909C41.4585 17.9094 42.1623 18.075 43.0094 18.075H43.2049H43.2179H50.2037H51.4158C51.6373 19.0685 52.0544 19.9347 52.68 20.6607C53.1883 21.2594 53.8139 21.7434 54.5568 22.1128C54.8435 22.2529 55.1824 22.2657 55.4691 22.1383L56.225 21.8071C56.5117 21.6797 56.7203 21.4377 56.7985 21.1575C57.0982 20.062 57.398 19.285 57.6717 18.8392C57.9975 18.3297 58.4015 18.075 58.8838 18.075H59.1444H59.1575H66.1432H66.443C67.8375 18.075 68.8672 17.7565 69.5188 17.1196C70.1705 16.4828 70.4963 15.5911 70.4963 14.4447C70.4963 13.7442 70.379 12.878 70.1574 11.8462C70.0923 11.4259 69.6491 11.1711 69.2321 11.2858ZM20.9183 15.6548C20.5403 15.6548 20.2796 15.6039 20.1102 15.4892C19.9538 15.3746 19.8626 15.1835 19.8626 14.916C19.8626 14.4829 19.9408 14.1135 20.1102 13.8206C20.2796 13.5276 20.5273 13.3875 20.8401 13.3875C21.205 13.3875 21.4787 13.5786 21.6611 13.9607C21.8436 14.3428 21.9739 14.9033 22.0391 15.6293C21.7263 15.6548 21.3483 15.6548 20.9183 15.6548ZM53.7096 13.6295C53.9703 13.1455 54.3091 12.9035 54.7392 12.9035C54.9738 12.9035 55.1563 12.9799 55.2866 13.12C55.417 13.2601 55.4691 13.4767 55.4691 13.7569C55.4691 14.2537 55.2736 14.6485 54.8956 14.9797C54.5046 15.2982 53.9963 15.4892 53.3577 15.5274C53.3447 14.7504 53.462 14.1135 53.7096 13.6295Z" fill="white"/>
<path d="M66.2995 21.2725L66.7427 21.7056C67.0424 21.9986 67.5247 21.9986 67.8244 21.7056L68.2675 21.2725C68.5673 20.9796 68.5673 20.5083 68.2675 20.2153L67.8244 19.7822C67.5247 19.4893 67.0424 19.4893 66.7427 19.7822L66.2995 20.2153C65.9998 20.5083 65.9998 20.9796 66.2995 21.2725Z" fill="white"/>
</g>
<defs>
<clipPath id="clip0">
<rect width="112" height="38" fill="white"/>
</clipPath>
</defs>
</svg>
